# xmcd CD database file
#
# Track frame offsets:
#	150
#	53946
#	66417
#	88648
#	117545
#	147563
#	177273
#	207298
#	222637
#	246349
#	268711
#	285734
#	323371
#
# Disc length: 4703 seconds
#
# Revision: 0
# Processed by: cddbd v1.5.1PL0 Copyright (c) Steve Scherf et al.
# Submitted via: CDex 1.51
#
DISCID=d6125d0d
DTITLE=Jazz Live in Samois - Tribute to Django Reinhardt 1988-1999 CD2
DYEAR=2003
DGENRE=Jazz
TTITLE0=Boulou and Elios Ferré - Django Medley
TTITLE1=Interview de Babik Reinhardt, Boulou Ferré et Christian Escoudé - 24 juin 1990
TTITLE2=Les Manouches de St Ouen - Sweet Georgia Brown
TTITLE3=Patrick Saussois and Alma Sinti - Jojo Swing and les Yeux Noirs
TTITLE4=Richard Galliano Trio - Tango pour Claude
TTITLE5=Martin Weiss Sinti Jazz Ensemble - All of me
TTITLE6=Ronald Baker Quintet - Bohemia After Dark
TTITLE7=New Quintet du HCF - Valse Sentimentale
TTITLE8=Angelo Debarre Quartet - Lentement Mademoiselle
TTITLE9=Larry Coryell - Nuages
TTITLE10=Stan Laferrière Septet - Take the A Train
TTITLE11=Kussi Weiss Trio - Anything but Love
TTITLE12=Manuel Rocheman Trio - Come Rain or Come Shine
EXTD=YEAR: 2003
EXTT0=
EXTT1=
EXTT2=
EXTT3=
EXTT4=
EXTT5=
EXTT6=
EXTT7=
EXTT8=
EXTT9=
EXTT10=
EXTT11=
EXTT12=
PLAYORDER=
